<svg xmlns="http://www.w3.org/2000/svg" viewBox="0 0 180 180">
  <defs>
    <linearGradient id="bg" x1="0%" y1="0%" x2="100%" y2="100%">
      <stop offset="0%" style="stop-color:#0f172a"/>
      <stop offset="100%" style="stop-color:#1e293b"/>
    </linearGradient>
    <linearGradient id="drop" x1="0%" y1="0%" x2="0%" y2="100%">
      <stop offset="0%" style="stop-color:#f97316"/>
      <stop offset="50%" style="stop-color:#ea580c"/>
      <stop offset="100%" style="stop-color:#9a3412"/>
    </linearGradient>
    <linearGradient id="pulse" x1="0%" y1="50%" x2="100%" y2="50%">
      <stop offset="0%" style="stop-color:#22d3ee"/>
      <stop offset="100%" style="stop-color:#06b6d4"/>
    </linearGradient>
    <filter id="glow">
      <feGaussianBlur stdDeviation="2" result="blur"/>
      <feMerge>
        <feMergeNode in="blur"/>
        <feMergeNode in="SourceGraphic"/>
      </feMerge>
    </filter>
  </defs>
  <rect width="180" height="180" rx="40" fill="url(#bg)"/>
  <path d="M90 25 C90 25 53 77 53 109 C53 129.4 69.6 146 90 146 C110.4 146 127 129.4 127 109 C127 77 90 25 90 25Z" fill="url(#drop)" opacity="0.95"/>
  <ellipse cx="77" cy="98" rx="10" ry="16" fill="white" opacity="0.18" transform="rotate(-15 77 98)"/>
  <polyline points="53,109 70,109 79,95 90,123 101,88 110,116 120,109 127,109" fill="none" stroke="url(#pulse)" stroke-width="4.5" stroke-linecap="round" stroke-linejoin="round" filter="url(#glow)"/>
</svg>
